<?xml version="1.0" encoding="utf-8"?>
<!-- Generated by IcoMoon.io -->
<!DOCTYPE svg PUBLIC "-//W3C//DTD SVG 1.1//EN" "http://www.w3.org/Graphics/SVG/1.1/DTD/svg11.dtd">
<svg version="1.1" xmlns="http://www.w3.org/2000/svg" xmlns:xlink="http://www.w3.org/1999/xlink" width="256" height="256" viewBox="0 0 256 256">
      <path d="m28.2,92.7c-2.4,0.1 -3.1,0.4 -4.6,1.7l-1.7,1.5l0.6,2.8c0.3,1.5 0.6,3.1 0.7,3.5c0.2,0.9 -6.9,5.8 -10.8,7.4c-1.3,0.6 -2.5,1.2 -2.5,1.5c0,1.1 4.3,7.3 5,7.3c0.9,0 5.7,5.4 5.4,6c-0.1,0.2 -1.4,0.5 -2.8,0.6c-1.4,0.1 -2.7,0.4 -2.8,0.5c-0.1,0.1 0.1,1.1 0.5,2.1c0.4,1.1 0.6,2.2 0.4,2.6c-0.2,0.5 0.6,1.7 2.5,3.6l2.8,2.9l-0.3,2.9c-0.2,2.4 -0.5,3.1 -1.3,3.7c-0.9,0.6 -1.1,1.1 -1.1,3c0,1.3 -0.3,2.9 -0.7,3.6l-0.5,1.1l2.1,0.3c3,0.4 2.6,1.6 -0.9,2.8l-2.7,0.9l0.3,2.5c0.3,2.5 1.6,4.5 3.6,5.6c0.6,0.4 0.7,0.2 0.2,-1c-0.4,-1.1 -0.4,-1.5 0.2,-2.1c0.6,-0.6 1.2,-0.6 4.9,0.3l4.3,1l1.1,-1c0.6,-0.6 1.3,-0.9 1.8,-0.7c0.6,0.2 0.8,0 0.8,-0.7c0,-0.9 0.3,-1 2.7,-1c2.5,0 2.9,0.1 6.7,2.8c3.4,2.4 4.3,2.8 6.1,2.8c1.9,0 2.1,-0.1 2.1,-1.2c0,-1.1 0.1,-1.2 2.7,-1.3c1.4,0 3.1,0 3.8,0c1.8,0.1 9,-2.6 10.2,-3.9c0.9,-1 3.1,-1.6 2.5,-0.7c-0.1,0.2 0,0.6 0.2,1c0.3,0.6 0.6,0.5 1.5,-0.4c1.4,-1.3 2.9,-1.3 5.8,0.3c2.4,1.3 2.5,1.3 5.5,0.6c2.9,-0.6 3.3,-0.6 5.7,0.3l2.6,1l6.5,-1.7c3.6,-0.9 6.7,-1.6 6.9,-1.6c0.3,0 2.3,1.3 4.5,3c2.3,1.7 4.2,3 4.4,3c0.1,0 0.8,-0.7 1.4,-1.6c0.8,-1.3 1.7,-1.8 3.5,-2.3c2.2,-0.7 2.5,-0.6 4.5,0.2c1.9,0.8 2.2,1.2 2.2,2.4c0,1.2 0.1,1.3 0.8,1c0.4,-0.2 2.1,-0.5 3.7,-0.6c2.7,-0.1 3,-0.1 4.3,1.1c1.1,1.1 1.4,1.2 2,0.6c0.6,-0.5 1.1,-0.5 2.7,0c1.9,0.5 2.2,0.5 7.2,-1.6c5,-2 5.2,-2.1 6.3,-1.3s1.2,0.7 2.9,-0.9c3.1,-2.9 3.1,-2.9 4.8,-1.6c1.4,1 1.8,1.1 4.9,0.8c2.4,-0.2 3.8,-0.6 4.7,-1.3c0.7,-0.5 1.8,-1 2.4,-1c0.6,0 1.3,-0.4 1.7,-0.9c0.3,-0.5 1,-0.9 1.4,-0.9c0.5,0 1.1,-0.3 1.4,-0.6c0.3,-0.4 0.8,-0.6 1.2,-0.4c0.5,0.2 0.6,-0.2 0.6,-1.4c0,-2.5 1.2,-4.4 2.5,-4.4c1,0 1.2,-0.2 1.2,-1.3c0,-0.7 0.7,-3 1.7,-5c1.7,-3.7 1.7,-3.8 4.1,-4.6c2.4,-0.8 2.5,-0.9 1.8,-1.8c-0.6,-0.9 -0.6,-1.1 0.5,-1.5c0.6,-0.3 2,-0.6 3.1,-0.6c1.5,0 2.1,-0.3 3.2,-1.6c1.3,-1.5 1.6,-1.6 3.2,-1.3c1.5,0.3 1.8,0.2 1.5,-0.4c-0.1,-0.4 0,-1.3 0.5,-2c0.6,-1.1 0.7,-1.2 0.7,-0.4c0,1.4 0.6,2 2.2,2.4c1.4,0.3 1.5,0.2 1.5,-1.1c0,-0.8 -0.2,-1.6 -0.5,-1.7s-0.5,-0.9 -0.5,-1.6s-0.5,-1.9 -1.2,-2.7c-0.6,-0.8 -1.2,-1.5 -1.2,-1.7c0,-0.2 2.7,-2.1 6.1,-4.3l6.1,-4l-2.7,-1.3c-2.1,-1 -3.5,-1.3 -5.6,-1.3c-2.7,0 -2.9,0 -3,-1.2l-0.1,-1.2l-2.6,1.8c-2.6,1.8 -2.7,1.9 -4.8,1.4c-2.8,-0.6 -3.7,-1.2 -4.1,-2.3c-0.2,-0.7 -0.6,-0.8 -2.1,-0.6c-1.3,0.2 -2.1,0 -3.2,-0.7c-0.8,-0.6 -1.4,-1.3 -1.4,-1.7c0,-0.5 -0.3,-0.6 -1,-0.4c-0.6,0.2 -1.2,0.1 -1.3,-0.2c-0.3,-0.4 -0.6,-0.4 -1.4,0c-0.9,0.5 -1.2,0.4 -2.1,-0.8c-0.9,-1.1 -1.6,-1.4 -3.6,-1.7c-1.5,-0.2 -3.1,-0.7 -3.7,-1.3c-1.1,-0.8 -1.4,-0.9 -2.9,-0.4c-1.5,0.5 -2.2,0.4 -5.6,-0.6l-3.9,-1.2l-1.3,1.2c-1.5,1.3 -2,1.3 -3.1,0.5c-0.8,-0.7 -4.9,-1.7 -6.8,-1.7l-1.2,0l1.1,1.2c0.6,0.6 1,1.2 0.9,1.3c-0.8,0.6 -2.5,1.7 -2.8,1.7c-0.2,0 -0.4,-0.4 -0.6,-0.9c-0.1,-0.5 -0.6,-0.9 -0.9,-0.9c-0.4,0 -0.9,-0.6 -1.3,-1.4c-0.3,-0.8 -0.7,-1.4 -0.8,-1.4c-0.1,0 -0.8,0.5 -1.6,1c-1.2,0.9 -1.5,0.9 -2.5,0.4c-0.8,-0.4 -1.1,-0.9 -0.9,-1.6c0.2,-0.9 0.1,-1 -1.2,-0.4c-1.1,0.4 -2.1,0.4 -5.1,0c-2.1,-0.4 -4.4,-0.5 -5.3,-0.4c-2.1,0.4 -11.2,-0.7 -12.8,-1.5c-1.2,-0.6 -1.9,-0.6 -7.8,0.6c-6.2,1.3 -6.4,1.3 -7.1,0.4c-0.5,-0.7 -1.3,-0.9 -5.4,-0.9c-2.6,0 -5.6,-0.2 -6.6,-0.4c-1.2,-0.2 -4.2,0 -8.3,0.6l-6.4,0.9l-2.5,-1c-2.4,-1 -2.6,-1 -9.8,-0.4c-9,0.8 -13.8,0.3 -17.3,-1.6c-2.3,-1.3 -4.2,-1.4 -13.5,-0.9z"/>
      <path d="m144.9,97.9c0.2,0.3 0.5,0.4 0.7,0.2c0.6,-0.4 0.5,-0.7 -0.3,-0.7c-0.4,0 -0.6,0.3 -0.4,0.5z"/>
      <path d="m236,113.1c0.4,1 0.4,2.8 0,4.1c-0.3,1 -0.2,1.1 2,1.1c2,0 2.4,0.2 3.1,1.2l0.8,1.2l0.7,-1c0.4,-0.6 1,-0.9 1.5,-0.8c0.7,0.2 1,-0.3 1.5,-2.5c0.4,-1.6 0.5,-2.9 0.3,-3s-1.6,0 -3,0.3c-2.3,0.5 -2.7,0.5 -4.9,-0.4c-2.1,-1 -2.3,-1 -2,-0.2z"/>
      <path d="m225.3,135.7c-0.5,0.1 -1.3,0.6 -1.8,1.1c-1.1,1 -7.6,2.6 -12.2,3.1c-1.8,0.1 -3.4,0.4 -3.5,0.6c-0.4,0.7 1.3,3.3 2.5,3.9c1.2,0.6 1.6,0.6 4.7,-0.4c4,-1.4 6.7,-1.5 7.3,-0.4c0.4,0.7 0.6,0.7 3.2,-0.5c1.9,-0.9 3.1,-1.3 3.9,-1c0.8,0.2 1.3,0 1.4,-0.4c0.2,-0.5 0.9,-0.7 2.5,-0.7c1.5,0 2.6,-0.3 3.4,-0.9c0.9,-0.7 1.9,-0.9 4.4,-0.9l3.2,0l-1.2,-1.2c-1.1,-1.1 -1.3,-1.1 -2.2,-0.6c-0.8,0.5 -1.8,0.4 -6.4,-0.6c-5.2,-1.4 -7.2,-1.6 -9.2,-1.1z"/>
</svg>
